<svg width="47" height="47" viewBox="0 0 47 47" fill="none" xmlns="http://www.w3.org/2000/svg">
<path d="M2.068 13.818L5.687 17.437C5.0525 19.3405 4.7 21.385 4.7 23.5C4.7 33.8635 13.1365 42.3 23.5 42.3C33.8635 42.3 42.3 33.8635 42.3 23.5C42.3 13.1365 33.8635 4.7 23.5 4.7C21.385 4.7 19.3405 5.0525 17.437 5.687L13.8415 2.0915C16.8025 0.752 20.069 0 23.5 0C36.472 0 47 10.528 47 23.5C47 36.472 36.472 47 23.5 47C10.528 47 0 36.472 0 23.5C0 20.0455 0.752 16.779 2.068 13.818ZM11.75 8.225C11.75 10.1755 10.1755 11.75 8.225 11.75C6.2745 11.75 4.7 10.1755 4.7 8.225C4.7 6.2745 6.2745 4.7 8.225 4.7C10.1755 4.7 11.75 6.2745 11.75 8.225ZM21.15 30.55H16.45V16.45H21.15V30.55ZM30.55 30.55H25.85V16.45H30.55V30.55Z" fill="#FBF8F3"/>
</svg>
